<?xml version="1.0" encoding="UTF-8" standalone="no"?>
<!-- Created with Inkscape (http://www.inkscape.org/) -->

<svg
   xmlns:dc="http://purl.org/dc/elements/1.1/"
   xmlns:cc="http://creativecommons.org/ns#"
   xmlns:rdf="http://www.w3.org/1999/02/22-rdf-syntax-ns#"
   xmlns:svg="http://www.w3.org/2000/svg"
   xmlns="http://www.w3.org/2000/svg"
   xmlns:sodipodi="http://sodipodi.sourceforge.net/DTD/sodipodi-0.dtd"
   xmlns:inkscape="http://www.inkscape.org/namespaces/inkscape"
   width="480"
   height="120"
   viewBox="0 0 480 120"
   id="svg4079"
   version="1.1"
   inkscape:version="0.92.2 (5c3e80d, 2017-08-06)"
   sodipodi:docname="logo.svg">
  <defs
     id="defs4081" />
  <sodipodi:namedview
     id="base"
     pagecolor="#ffffff"
     bordercolor="#666666"
     borderopacity="1.0"
     inkscape:pageopacity="0.0"
     inkscape:pageshadow="2"
     inkscape:zoom="1.7359249"
     inkscape:cx="240.53241"
     inkscape:cy="62.515529"
     inkscape:document-units="px"
     inkscape:current-layer="g5113"
     showgrid="false"
     units="px"
     inkscape:window-width="1427"
     inkscape:window-height="865"
     inkscape:window-x="271"
     inkscape:window-y="345"
     inkscape:window-maximized="0"
     fit-margin-top="0"
     fit-margin-left="0"
     fit-margin-right="0"
     fit-margin-bottom="0" />
  <metadata
     id="metadata4084">
    <rdf:RDF>
      <cc:Work
         rdf:about="">
        <dc:format>image/svg+xml</dc:format>
        <dc:type
           rdf:resource="http://purl.org/dc/dcmitype/StillImage" />
        <dc:title />
      </cc:Work>
    </rdf:RDF>
  </metadata>
  <g
     inkscape:label="Layer 1"
     inkscape:groupmode="layer"
     id="layer1"
     transform="translate(138.60523,-914.30265)">
    <g
       id="g5113"
       transform="matrix(1.4133071,0,0,1.4133071,-46.835488,-379.67295)">
      <path
         inkscape:connector-curvature="0"
         id="path266"
         style="fill:#ffffff;fill-opacity:1;fill-rule:nonzero;stroke:none"
         d="m -33.58351,946.20911 c -0.435,-0.66375 -0.99625,-0.9975 -1.68375,-0.9975 l -2.54,0 c -0.735,0 -1.3975,0.33375 -1.9925,0.9975 -0.595,0.6625 -0.985,1.49875 -1.16625,2.505 l -3.16,20.1925 c -0.13625,1.0075 -0.0125,1.84375 0.3775,2.5075 0.38875,0.665 0.94875,0.995 1.6825,0.995 l 2.54125,0 c 0.68625,0 1.35,-0.33 1.99375,-0.995 0.63875,-0.66375 1.0275,-1.5 1.16625,-2.5075 l 3.15875,-20.1925 c 0.1825,-1.00625 0.0563,-1.8425 -0.3775,-2.505 z m -10.13125,36.70875 c -0.86875,0 -1.73875,-0.1375 -2.61,-0.41125 l -2.54125,16.55127 -9.82125,0 7.83,-50.34377 c 0.27375,-1.785 0.86,-3.525 1.75125,-5.21875 0.89375,-1.6925 1.9925,-3.195 3.2975,-4.49875 1.305,-1.30375 2.78125,-2.345 4.43,-3.125 1.6475,-0.77875 3.3875,-1.16875 5.21875,-1.16875 l 2.54125,0 c 1.785,0 3.3875,0.39 4.8075,1.16875 1.42,0.78 2.57625,1.82125 3.47,3.125 0.89125,1.30375 1.50875,2.80625 1.8525,4.49875 0.34375,1.69375 0.38,3.43375 0.10375,5.21875 l -3.15875,20.1925 c -0.275,1.785 -0.85875,3.5275 -1.7525,5.22 -0.89375,1.695 -1.99,3.19375 -3.29625,4.49875 -1.30375,1.305 -2.7825,2.3475 -4.43,3.125 -1.64875,0.7775 -3.365,1.1675 -5.15,1.1675 l -2.5425,0" />
      <path
         inkscape:connector-curvature="0"
         id="path268"
         style="fill:#ffffff;fill-opacity:1;fill-rule:nonzero;stroke:none"
         d="m -11.24976,968.08161 c -0.1375,1.05375 -0.025,1.9025 0.34375,2.5425 0.365,0.64125 0.87,0.96125 1.5099996,0.96125 l 2.6112492,0 -1.6487496,10.51 -2.6112492,0 c -1.7825,0 -3.3425,-0.39 -4.67,-1.17 -1.3275,-0.7775 -2.415,-1.81875 -3.26125,-3.12375 -0.8475,-1.305 -1.43125,-2.79375 -1.75125,-4.465 -0.32125,-1.67 -0.3425,-3.4225 -0.07,-5.255 l 7.89875,-50.3425 9.547499,0 -7.898749,50.3425" />
      <path
         inkscape:connector-curvature="0"
         id="path270"
         style="fill:#ffffff;fill-opacity:1;fill-rule:nonzero;stroke:none"
         d="m 17.72149,945.83036 c -0.4825,-0.64125 -1.02,-0.96125 -1.615,-0.96125 l -2.54125,0 c -0.64125,0 -1.282501,0.32 -1.923751,0.96125 -0.64,0.64125 -1.0525,1.48875 -1.23625,2.54125 l -3.09,19.84875 c -0.18375,1.05375 -0.0475,1.8875 0.4125,2.50625 0.45625,0.61875 1.0062504,0.9275 1.6462504,0.9275 l 2.5424996,0 c 0.64125,-0.1375 1.258751,-0.525 1.855001,-1.1675 0.59375,-0.64 0.96,-1.4175 1.09875,-2.335 l 3.29625,-19.78 c 0.18375,-1.0525 0.0362,-1.9 -0.445,-2.54125 z m 7.93125,36.0575 c -2.84,0 -5.26625,-0.9375 -7.28,-2.815 -1.0075,0.64125 -1.82,1.1225 -2.44,1.44125 -0.61625,0.32 -1.2475,0.595 -1.88875,0.825 -0.5475,0.1825 -1.235001,0.32 -2.058751,0.41125 -0.8225,0.0937 -2.2212496,0.1625 -4.19,0.20625 -1.74,0 -3.3075,-0.36625 -4.70375,-1.1 -1.3975,-0.73 -2.56375001,-1.71625 -3.50250001,-2.9525 -0.93999999,-1.235 -1.60499999,-2.68875 -1.99249999,-4.36 -0.38875,-1.67125 -0.44625,-3.44625 -0.1725,-5.32375 l 3.09249999,-19.84875 c 0.27375,-1.8775 0.86750001,-3.65125 1.78500001,-5.3225 0.91625,-1.6725 2.0375,-3.125 3.36625,-4.3625 1.3275,-1.235 2.80125,-2.22 4.4275,-2.9525 1.62625,-0.7325 3.310001,-1.09875 5.050001,-1.09875 l 2.54,0 c 1.74125,0 3.31,0.36625 4.70625,1.09875 1.39375,0.7325 2.55125,1.7175 3.4675,2.9525 0.91625,1.2375 1.5675,2.69 1.95875,4.3625 0.3875,1.67125 0.445,3.445 0.17,5.3225 l -3.22625,20.605 c -0.0475,0.7325 0.13625,1.385 0.5475,1.95625 0.41375,0.5725 0.91625,0.81375 1.51125,0.72125 l 3.4325,0 -1.57875,10.23375 -3.02125,0" />
      <path
         inkscape:connector-curvature="0"
         id="path272"
         style="fill:#ffffff;fill-opacity:1;fill-rule:nonzero;stroke:none"
         d="m 35.54399,999.05788 1.5775,-10.43877 8.105,0 c 0.68625,0 1.35125,-0.3325 1.99125,-0.99625 0.64125,-0.665 1.03125,-1.5 1.1675,-2.50625 l 0.4125,-2.5425 c -1.0075,0.22875 -1.89875,0.34375 -2.67875,0.34375 l -2.54,0 c -1.8325,0 -3.44625,-0.39 -4.84375,-1.1675 -1.3975,-0.7775 -2.53875,-1.8075 -3.43375,-3.09125 -0.8925,-1.28 -1.5225,-2.76875 -1.8875,-4.46375 -0.3675,-1.69375 -0.41375,-3.43375 -0.1375,-5.21875 l 5.35625,-34.20375 9.89,0 -5.3575,34.20375 c -0.13625,1.0075 -0.01,1.8425 0.3775,2.50625 0.39125,0.66375 0.95125,0.995 1.68375,0.995 l 2.54125,0 c 0.68875,0 1.35,-0.3425 1.99125,-1.03 0.64125,-0.68625 1.03,-1.51125 1.1675,-2.47125 l 5.3575,-34.20375 9.82125,0 -7.89875,50.34375 c -0.27375,1.785 -0.8475,3.525 -1.71625,5.21875 -0.87,1.69375 -1.9575,3.1825 -3.2625,4.46375 -1.30375,1.28125 -2.78125,2.3125 -4.43,3.09125 -1.6475,0.77752 -3.365,1.16752 -5.15125,1.16752 l -8.1025,0" />
      <path
         inkscape:connector-curvature="0"
         id="path274"
         style="fill:#ffffff;fill-opacity:1;fill-rule:nonzero;stroke:none"
         d="m 69.95149,954.00286 7.83125,0 -1.5125,9.89 -7.82875,0 1.51,-9.89 z m -2.81625,18.1325 7.83,0 -1.51,9.89 -7.83,0 1.51,-9.89" />
      <path
         inkscape:connector-curvature="0"
         id="path276"
         style="fill:#ffffff;fill-opacity:1;fill-rule:nonzero;stroke:none"
         d="m 88.79573,980.8721 c -1.39012,-0.75329 -2.54568,-1.76576 -3.45336,-3.04536 -0.9153,-1.27562 -1.54267,-2.7363 -1.884,-4.38202 -0.34133,-1.63991 -0.37565,-3.35229 -0.10098,-5.13133 l 5.20006,-33.46775 9.85476,0 -5.20007,33.46775 c -0.18305,1.00484 -0.0706,1.83624 0.34134,2.49801 0.40998,0.6636 0.98205,0.99341 1.71238,0.99341 l 5.13332,0 5.74734,-36.95917 9.85669,0 -7.39109,47.15534 -14.99191,0 c -1.82487,0 -3.43047,-0.37375 -4.8244,-1.12888" />
      <path
         inkscape:connector-curvature="0"
         id="path278"
         style="fill:#ffffff;fill-opacity:1;fill-rule:nonzero;stroke:none"
         d="m 132.77034,932.31522 -9.51533,0 1.30049,-8.48944 9.51533,0 -1.30049,8.48944 z m -10.06262,48.52256 c -1.32337,-0.7742 -2.40648,-1.81352 -3.24932,-3.11203 -0.84475,-1.30248 -1.42825,-2.78404 -1.74861,-4.44883 -0.31654,-1.66845 -0.33942,-3.41134 -0.0648,-5.23629 l 5.20197,-33.33038 9.51343,0 -5.20197,33.33038 c -0.13913,1.05077 -0.0229,1.8936 0.34133,2.53233 0.36231,0.63888 0.86573,0.95543 1.50644,0.95543 l 2.59907,0 -1.64182,10.47259 -2.6029,0 c -1.77721,0 -3.3294,-0.38519 -4.65279,-1.1632" />
      <path
         inkscape:connector-curvature="0"
         id="path280"
         style="fill:#ffffff;fill-opacity:1;fill-rule:nonzero;stroke:none"
         d="m 152.11947,944.83767 c -0.81996,0 -1.52932,0.32235 -2.12046,0.95925 -0.59494,0.63873 -1.10789,1.42634 -1.54076,2.36071 -0.43286,0.93621 -0.78754,1.97553 -1.06022,3.11387 -0.27269,1.14229 -0.50341,2.20252 -0.68648,3.18266 -0.18306,0.98196 -0.31845,1.82679 -0.40997,2.53417 -0.0935,0.70554 -0.13349,1.10599 -0.13349,1.19568 l 6.01812,0 c 1.00493,0 1.79438,-0.43095 2.36453,-1.30049 0.57016,-0.86572 0.9916,-1.87072 1.26619,-3.01104 0.27268,-1.13833 0.45574,-2.25958 0.54918,-3.35413 0.0897,-1.09455 0.17734,-1.89162 0.27077,-2.39504 l 0.0343,-0.34141 0.0343,-0.34324 c 0,-0.77419 -0.20594,-1.40148 -0.61592,-1.88202 -0.41188,-0.4787 -0.89052,-0.71897 -1.43781,-0.71897 l -2.53233,0 z m 6.36519,37.02602 -12.04388,0 c -2.10139,0 -3.83284,-0.36232 -5.20389,-1.09272 -1.36914,-0.73026 -2.46178,-1.73328 -3.28364,-3.01288 -0.82187,-1.27761 -1.39202,-2.7363 -1.71047,-4.38003 -0.32036,-1.6419 -0.48245,-3.39623 -0.48245,-5.26879 0,-1.91832 0.11823,-3.86715 0.34515,-5.85216 0.22692,-1.98513 0.5015,-3.87859 0.82186,-5.68067 0.31845,-1.80391 0.64835,-3.43239 0.99158,-4.89306 0.34324,-1.46067 0.62546,-2.64676 0.85619,-3.56007 0.45384,-1.82298 1.12697,-3.56022 2.01748,-5.20014 0.88861,-1.64373 1.94883,-3.08149 3.18449,-4.31143 1.22994,-1.23376 2.62387,-2.20245 4.17417,-2.908 1.5503,-0.70936 3.23788,-1.06213 5.06276,-1.06213 l 2.53045,0 c 1.6914,0 3.20928,0.31845 4.55364,0.95726 1.34435,0.64071 2.48848,1.49689 3.42285,2.56666 0.93437,1.07357 1.65327,2.3283 2.15669,3.76423 0.50341,1.4358 0.7513,2.93278 0.7513,4.483 0,0.36612 -0.0107,0.73041 -0.0325,1.09653 -0.0229,0.36414 -0.0572,0.72843 -0.10297,1.09456 l -1.02781,6.29652 c -0.27269,1.77904 -0.8314,3.47815 -1.67615,5.09702 -0.84284,1.62084 -1.91642,3.0472 -3.21691,4.27905 -1.30049,1.23185 -2.76116,2.2254 -4.38201,2.97855 -1.62086,0.75131 -3.34087,1.12887 -5.16766,1.12887 l -5.47276,0 0,0.68266 c 0,0.77618 0.1926,1.40545 0.58161,1.88401 0.38709,0.47672 0.85618,0.71698 1.40346,0.71698 l 12.52441,0 -1.57508,10.19618" />
      <path
         inkscape:connector-curvature="0"
         id="path282"
         style="fill:#ffffff;fill-opacity:1;fill-rule:nonzero;stroke:none"
         d="m 188.54664,948.53519 c 0.13913,-0.91347 0,-1.71238 -0.40998,-2.39321 -0.41188,-0.68647 -0.95726,-1.02972 -1.64373,-1.02972 l -2.53234,0 c -0.68266,0 -1.34626,0.34325 -1.98315,1.02972 -0.63881,0.68083 -1.02782,1.47974 -1.1613,2.39321 l -5.27443,33.46579 -9.85477,0 5.27062,-33.46579 c 0.2765,-1.78102 0.84475,-3.49157 1.70857,-5.13332 0.86954,-1.6419 1.95265,-3.0911 3.25505,-4.34583 1.29858,-1.25473 2.77261,-2.26919 4.41443,-3.0472 1.64183,-0.77419 3.37518,-1.1632 5.20197,-1.1632 l 2.53043,0 c 1.77912,0 3.37518,0.38901 4.78818,1.1632 1.41682,0.77801 2.57048,1.79247 3.45909,3.0472 0.89241,1.25473 1.51787,2.70393 1.88209,4.34583 0.36612,1.64175 0.40998,3.3523 0.13547,5.13332 l -5.26872,33.46579 -9.78612,0 5.26872,-33.46579" />
      <path
         inkscape:connector-curvature="0"
         id="path284"
         style="fill:#ffffff;fill-opacity:1;fill-rule:nonzero;stroke:none"
         d="m 222.76944,948.53519 c 0.13547,-0.91347 0,-1.71238 -0.4138,-2.39321 -0.40997,-0.68647 -0.95724,-1.02972 -1.64182,-1.02972 l -2.53233,0 c -0.68648,0 -1.34626,0.34325 -1.98316,1.02972 -0.64072,0.68083 -1.02781,1.47974 -1.16702,2.39321 l -5.26489,33.46579 -9.85858,0 5.26872,-33.46579 c 0.27459,-1.78102 0.84665,-3.49157 1.71428,-5.13332 0.86382,-1.6419 1.94693,-3.0911 3.25123,-4.34583 1.29859,-1.25473 2.7707,-2.26919 4.41062,-3.0472 1.64564,-0.77419 3.379,-1.1632 5.20388,-1.1632 l 2.53425,0 c 1.77721,0 3.36946,0.38901 4.78818,1.1632 1.4149,0.77801 2.56857,1.79247 3.45336,3.0472 0.89242,1.25473 1.51978,2.70393 1.88399,4.34583 0.36613,1.64175 0.40999,3.3523 0.13928,5.13332 l -5.27061,33.46579 -9.78993,0 5.27443,-33.46579" />
      <path
         inkscape:connector-curvature="0"
         id="path286"
         style="fill:#ffffff;fill-opacity:1;fill-rule:nonzero;stroke:none"
         d="m 255.24363,945.86556 c -0.48053,-0.63888 -1.01637,-0.95924 -1.6094,-0.95924 l -2.53425,0 c -0.63881,0 -1.27761,0.32036 -1.91641,0.95924 -0.63691,0.63873 -1.04688,1.48355 -1.22804,2.53417 l -3.07961,19.77635 c -0.18306,1.05063 -0.0476,1.88202 0.40997,2.49986 0.45384,0.61401 1.00113,0.92292 1.64183,0.92292 l 2.53234,0 c 0.64071,-0.13729 1.25473,-0.52431 1.84777,-1.1632 0.59113,-0.63872 0.96107,-1.41291 1.09455,-2.32639 l 3.28555,-19.70954 c 0.18116,-1.05062 0.0364,-1.89544 -0.4443,-2.53417 z m 7.90594,35.93131 c -2.83173,0 -5.24775,-0.93437 -7.25759,-2.80693 -1.00112,0.64071 -1.81345,1.11941 -2.42747,1.43977 -0.61783,0.31837 -1.24329,0.59296 -1.88209,0.81798 -0.54918,0.18306 -1.23375,0.32234 -2.05371,0.41387 -0.82186,0.09 -2.21389,0.16017 -4.17417,0.20213 -1.73716,0 -3.297,-0.36232 -4.68711,-1.09272 -1.39583,-0.73026 -2.55903,-1.7104 -3.4915,-2.94423 -0.94009,-1.23184 -1.59797,-2.67909 -1.98315,-4.34387 -0.39283,-1.66845 -0.44812,-3.43423 -0.17353,-5.30679 l 3.0777,-19.77635 c 0.27651,-1.87256 0.86764,-3.64016 1.78104,-5.30494 0.91148,-1.66464 2.03082,-3.11582 3.3542,-4.34576 1.32337,-1.23375 2.79358,-2.21579 4.41443,-2.94422 1.61704,-0.73034 3.297,-1.09456 5.02844,-1.09456 l 2.53615,0 c 1.73336,0 3.29319,0.36422 4.68712,1.09456 1.39012,0.72843 2.53997,1.71047 3.45337,2.94422 0.91339,1.22994 1.56364,2.68112 1.95264,4.34576 0.3871,1.66478 0.4443,3.43238 0.16971,5.30494 l -3.215,20.5295 c -0.0476,0.73225 0.13547,1.38058 0.54727,1.94884 0.40808,0.57404 0.9134,0.81233 1.50644,0.72079 l 3.41904,0 -1.57317,10.19801 -3.00906,0" />
    </g>
  </g>
</svg>
