<?xml version="1.0" standalone="no"?>
<!DOCTYPE svg PUBLIC "-//W3C//DTD SVG 20010904//EN"
 "http://www.w3.org/TR/2001/REC-SVG-20010904/DTD/svg10.dtd">
<svg version="1.0" xmlns="http://www.w3.org/2000/svg"
 width="700.000000pt" height="700.000000pt" viewBox="0 0 700.000000 700.000000"
 preserveAspectRatio="xMidYMid meet">
<metadata>
Created by potrace 1.11, written by Peter Selinger 2001-2013
</metadata>
<g transform="translate(0.000000,700.000000) scale(0.100000,-0.100000)"
fill="#000000" stroke="none">
<path d="M3407 6853 c-2 -1 -37 -5 -78 -7 -64 -4 -133 -14 -216 -30 -55 -11
-218 -58 -247 -70 -26 -12 -61 -25 -86 -31 -3 -1 -45 -22 -95 -46 -131 -64
-225 -121 -218 -132 3 -6 1 -7 -5 -3 -7 4 -17 2 -24 -4 -7 -5 -53 -41 -102
-79 -142 -112 -234 -205 -332 -338 -33 -43 -61 -80 -64 -83 -13 -12 -109 -181
-134 -235 -15 -33 -32 -68 -37 -78 -8 -15 -66 -170 -69 -182 0 -3 -2 -10 -4
-17 -17 -55 -46 -182 -51 -223 -4 -27 -10 -68 -15 -90 -18 -93 -16 -410 5
-505 3 -14 9 -50 15 -80 16 -92 21 -112 31 -132 6 -11 9 -22 6 -24 -8 -8 98
-293 113 -304 3 -3 12 -21 20 -40 7 -19 25 -53 40 -75 38 -58 43 -75 22 -76
-90 -3 -199 -14 -257 -25 -11 -2 -36 -5 -55 -8 -108 -14 -388 -104 -460 -147
-8 -5 -23 -12 -32 -15 -10 -4 -18 -11 -18 -17 0 -6 -3 -8 -6 -4 -6 6 -64 -19
-74 -32 -3 -4 -27 -18 -53 -31 -26 -14 -56 -32 -65 -40 -9 -8 -42 -32 -72 -53
-88 -60 -188 -151 -283 -257 -32 -36 -64 -72 -71 -80 -8 -8 -48 -65 -89 -127
-98 -147 -204 -361 -232 -473 -1 -3 -4 -12 -8 -20 -10 -26 -48 -190 -53 -228
-3 -21 -7 -48 -9 -62 -19 -105 -25 -345 -11 -461 11 -89 26 -182 37 -224 6
-22 12 -47 14 -55 24 -122 119 -348 213 -505 48 -81 68 -106 77 -97 5 4 5 2 2
-4 -6 -10 1 -23 50 -84 49 -63 66 -79 75 -73 7 4 8 1 3 -7 -5 -8 23 -42 86
-102 108 -104 215 -188 332 -260 82 -52 276 -148 296 -148 6 0 19 -4 29 -10
47 -25 255 -83 342 -94 25 -3 56 -8 70 -11 32 -7 218 -17 290 -15 142 3 312
25 395 50 17 5 41 11 55 14 14 3 34 7 45 10 30 7 188 66 205 77 8 5 22 12 30
15 173 69 504 293 483 327 -3 6 -1 7 6 3 17 -11 160 140 254 267 l79 108 30
-48 c17 -26 33 -50 37 -53 3 -3 26 -32 50 -64 108 -145 335 -342 516 -448 201
-118 446 -207 640 -233 22 -3 53 -8 68 -11 67 -14 327 -20 417 -10 158 16 338
57 482 110 509 185 929 604 1118 1115 37 102 77 252 90 339 5 37 13 81 16 97
3 17 6 111 7 210 1 391 -96 718 -311 1051 -92 143 -274 338 -414 445 -70 54
-261 179 -272 179 -3 0 -42 18 -86 39 -134 66 -370 139 -500 155 -25 4 -56 8
-70 11 -14 2 -67 6 -118 9 -52 2 -96 7 -100 10 -3 4 4 20 16 36 50 68 154 298
157 345 0 6 4 13 8 16 5 3 9 12 10 20 2 8 6 19 9 25 4 6 10 26 13 45 3 19 13
58 21 86 9 29 17 72 18 97 2 24 6 48 9 53 4 6 9 48 12 94 3 46 8 96 10 112 3
15 0 27 -6 27 -8 0 -8 4 0 13 6 8 9 37 6 73 -18 228 -17 211 -29 279 -17 92
-58 248 -87 326 -30 83 -129 290 -152 317 -12 15 -32 47 -43 72 -4 8 -10 17
-14 20 -3 3 -17 21 -30 40 -13 19 -27 37 -30 40 -3 3 -13 15 -21 26 -18 27
-116 139 -148 170 -14 12 -29 20 -34 17 -6 -3 -7 -1 -4 4 4 6 -16 30 -44 54
-28 24 -56 49 -63 54 -29 26 -157 120 -164 120 -4 0 -32 17 -62 36 -110 71
-319 161 -455 195 -33 8 -76 19 -95 25 -36 9 -107 20 -150 23 -14 1 -30 5 -35
8 -15 8 -311 19 -318 11z"/>
</g>
</svg>
