<?xml version="1.0" encoding="UTF-8" standalone="no"?>
<!-- Created with Inkscape (http://www.inkscape.org/) -->

<svg
   xmlns:dc="http://purl.org/dc/elements/1.1/"
   xmlns:cc="http://creativecommons.org/ns#"
   xmlns:rdf="http://www.w3.org/1999/02/22-rdf-syntax-ns#"
   xmlns:svg="http://www.w3.org/2000/svg"
   xmlns="http://www.w3.org/2000/svg"
   xmlns:sodipodi="http://sodipodi.sourceforge.net/DTD/sodipodi-0.dtd"
   xmlns:inkscape="http://www.inkscape.org/namespaces/inkscape"
   width="128"
   height="128"
   viewBox="0 0 128 128"
   id="svg4079"
   version="1.1"
   inkscape:version="0.92.2 (5c3e80d, 2017-08-06)"
   sodipodi:docname="marker.svg">
  <defs
     id="defs4081" />
  <sodipodi:namedview
     id="base"
     pagecolor="#ffffff"
     bordercolor="#666666"
     borderopacity="1.0"
     inkscape:pageopacity="0.0"
     inkscape:pageshadow="2"
     inkscape:zoom="3.4718498"
     inkscape:cx="35.709"
     inkscape:cy="67.109537"
     inkscape:document-units="px"
     inkscape:current-layer="g5113"
     showgrid="false"
     units="px"
     inkscape:window-width="2493"
     inkscape:window-height="1385"
     inkscape:window-x="67"
     inkscape:window-y="27"
     inkscape:window-maximized="1"
     fit-margin-top="0"
     fit-margin-left="0"
     fit-margin-right="0"
     fit-margin-bottom="0"
     inkscape:snap-bbox="true"
     inkscape:snap-page="true" />
  <metadata
     id="metadata4084">
    <rdf:RDF>
      <cc:Work
         rdf:about="">
        <dc:format>image/svg+xml</dc:format>
        <dc:type
           rdf:resource="http://purl.org/dc/dcmitype/StillImage" />
        <dc:title />
      </cc:Work>
    </rdf:RDF>
  </metadata>
  <g
     inkscape:label="Layer 1"
     inkscape:groupmode="layer"
     id="layer1"
     transform="translate(138.60523,-906.30265)">
    <g
       id="g5113"
       transform="matrix(1.4133071,0,0,1.4133071,-46.835488,-379.67295)">
      <circle
         style="opacity:1;fill:#007381;fill-opacity:1;stroke:none;stroke-width:2.82458591;stroke-opacity:1"
         id="path889"
         cx="-19.648767"
         cy="955.18915"
         r="45.283859" />
      <path
         inkscape:connector-curvature="0"
         id="path266"
         style="fill:#ffffff;fill-opacity:1;fill-rule:nonzero;stroke:none;stroke-width:0.25821584"
         d="m -55.309864,952.04163 c -0.112324,-0.17139 -0.257248,-0.25757 -0.434771,-0.25757 h -0.655868 c -0.189789,0 -0.360857,0.0862 -0.514495,0.25757 -0.153638,0.17107 -0.254343,0.387 -0.301144,0.64683 l -0.815962,5.21403 c -0.03518,0.26014 -0.0033,0.47608 0.09748,0.64747 0.100381,0.17171 0.244982,0.25693 0.434448,0.25693 h 0.656191 c 0.177201,0 0.348592,-0.0852 0.514818,-0.25693 0.164935,-0.17139 0.265317,-0.38733 0.301144,-0.64747 l 0.815639,-5.21403 c 0.04713,-0.25983 0.01454,-0.47576 -0.09748,-0.64683 z m -2.616049,9.47878 c -0.224325,0 -0.448973,-0.0355 -0.673943,-0.10619 l -0.656191,4.2738 h -2.536002 l 2.02183,-12.99956 c 0.07069,-0.46092 0.222065,-0.91021 0.4522,-1.34756 0.230781,-0.43704 0.514495,-0.82501 0.851467,-1.16165 0.336971,-0.33665 0.718163,-0.60552 1.143896,-0.80693 0.42541,-0.20108 0.874706,-0.30178 1.347563,-0.30178 h 0.656192 c 0.460915,0 0.874705,0.1007 1.241372,0.30178 0.366667,0.20141 0.665229,0.47028 0.896009,0.80693 0.230135,0.33664 0.389583,0.72461 0.478345,1.16165 0.08876,0.43735 0.09812,0.88664 0.02679,1.34756 l -0.815639,5.21403 c -0.07101,0.46091 -0.221743,0.91085 -0.452524,1.34788 -0.23078,0.43768 -0.513849,0.82468 -0.851144,1.16165 -0.336648,0.33697 -0.718485,0.60616 -1.143896,0.80692 -0.425733,0.20076 -0.868896,0.30147 -1.329811,0.30147 h -0.656514" />
      <path
         inkscape:connector-curvature="0"
         id="path268"
         style="fill:#ffffff;fill-opacity:1;fill-rule:nonzero;stroke:none;stroke-width:0.25821584"
         d="m -49.542936,957.68946 c -0.03551,0.27209 -0.0064,0.49125 0.08876,0.65651 0.09425,0.16558 0.224648,0.2482 0.389906,0.2482 h 0.674266 l -0.425733,2.71386 h -0.674266 c -0.46027,0 -0.863086,-0.1007 -1.205868,-0.30211 -0.342782,-0.20077 -0.623591,-0.46963 -0.842106,-0.8066 -0.218838,-0.33698 -0.369572,-0.7214 -0.452201,-1.15294 -0.08295,-0.43122 -0.08844,-0.88375 -0.01807,-1.35692 l 2.039582,-12.99924 h 2.465315 l -2.039581,12.99924" />
      <path
         inkscape:connector-curvature="0"
         id="path270"
         style="fill:#ffffff;fill-opacity:1;fill-rule:nonzero;stroke:none;stroke-width:0.25821584"
         d="m -42.062101,951.94383 c -0.124589,-0.16558 -0.263381,-0.24821 -0.417019,-0.24821 h -0.65619 c -0.165581,0 -0.331163,0.0826 -0.496744,0.24821 -0.165257,0.16558 -0.271772,0.38442 -0.319219,0.65619 l -0.797886,5.12526 c -0.04745,0.27209 -0.01227,0.48738 0.106513,0.64715 0.117811,0.15978 0.25983,0.2395 0.425088,0.2395 h 0.656514 c 0.16558,-0.0355 0.32503,-0.13556 0.478991,-0.30147 0.153315,-0.16525 0.247886,-0.36601 0.283714,-0.60293 l 0.851144,-5.10751 c 0.04744,-0.27177 0.0093,-0.49061 -0.114906,-0.65619 z m 2.047974,9.31061 c -0.733333,0 -1.359829,-0.24207 -1.879811,-0.72687 -0.260153,0.16558 -0.469953,0.28985 -0.630047,0.37216 -0.159125,0.0826 -0.322124,0.15363 -0.487705,0.21303 -0.141373,0.0471 -0.318897,0.0826 -0.531601,0.10618 -0.212384,0.0242 -0.573562,0.042 -1.081925,0.0532 -0.449296,0 -0.854049,-0.0946 -1.214583,-0.28404 -0.360856,-0.18849 -0.662001,-0.44316 -0.9044,-0.76238 -0.242724,-0.31889 -0.414437,-0.69428 -0.514496,-1.12582 -0.100382,-0.43154 -0.115229,-0.88987 -0.04454,-1.37468 l 0.798532,-5.12526 c 0.07069,-0.4848 0.224002,-0.94281 0.460916,-1.37435 0.23659,-0.43187 0.526114,-0.80692 0.869219,-1.12647 0.342781,-0.3189 0.723327,-0.57323 1.14325,-0.76238 0.419924,-0.18914 0.854695,-0.28371 1.303991,-0.28371 h 0.655867 c 0.449619,0 0.854695,0.0946 1.215229,0.28371 0.359888,0.18915 0.658773,0.44348 0.895364,0.76238 0.23659,0.31955 0.404753,0.6946 0.50578,1.12647 0.100058,0.43154 0.114905,0.88955 0.0439,1.37435 l -0.833069,5.32054 c -0.01226,0.18914 0.03518,0.35763 0.141373,0.50513 0.106838,0.14784 0.236591,0.21013 0.390229,0.18624 h 0.886326 l -0.407658,2.64251 h -0.780135" />
      <path
         inkscape:connector-curvature="0"
         id="path272"
         style="fill:#ffffff;fill-opacity:1;fill-rule:nonzero;stroke:none;stroke-width:0.25821584"
         d="m -37.460049,965.68802 0.407335,-2.69546 h 2.092839 c 0.177201,0 0.348915,-0.0859 0.514172,-0.25724 0.165581,-0.17172 0.266285,-0.38733 0.301467,-0.64716 l 0.106514,-0.65651 c -0.260152,0.0591 -0.490287,0.0888 -0.691695,0.0888 h -0.655869 c -0.47318,0 -0.889876,-0.10071 -1.250732,-0.30147 -0.360857,-0.20076 -0.655546,-0.46672 -0.886649,-0.79821 -0.230458,-0.33051 -0.393133,-0.71493 -0.487382,-1.15261 -0.09489,-0.43735 -0.106837,-0.88665 -0.03551,-1.34756 l 1.383069,-8.83195 h 2.553754 l -1.383391,8.83195 c -0.03518,0.26015 -0.0026,0.47576 0.09748,0.64715 0.101027,0.17139 0.245628,0.25693 0.434771,0.25693 h 0.656191 c 0.177846,0 0.348591,-0.0884 0.514172,-0.26596 0.165581,-0.17721 0.265963,-0.39024 0.301468,-0.63812 l 1.38339,-8.83195 h 2.536003 l -2.039583,12.99955 c -0.07069,0.46091 -0.218838,0.91021 -0.443163,1.34757 -0.224647,0.43735 -0.505457,0.82177 -0.842429,1.15261 -0.336649,0.33083 -0.718163,0.59712 -1.143896,0.79821 -0.425411,0.20076 -0.868896,0.30147 -1.330134,0.30147 h -2.092193" />
      <path
         inkscape:connector-curvature="0"
         id="path274"
         style="fill:#ffffff;fill-opacity:1;fill-rule:nonzero;stroke:none;stroke-width:0.25821584"
         d="m -28.575489,954.0541 h 2.022153 l -0.390552,2.55376 h -2.021507 z m -0.7272,4.6821 h 2.02183 l -0.389906,2.55375 h -2.02183 l 0.389906,-2.55375" />
      <path
         inkscape:connector-curvature="0"
         id="path276"
         style="fill:#ffffff;fill-opacity:1;fill-rule:nonzero;stroke:none;stroke-width:0.25821584"
         d="m -23.709607,960.99216 c -0.358951,-0.19451 -0.657336,-0.45594 -0.891713,-0.78636 -0.236345,-0.32938 -0.398342,-0.70655 -0.486479,-1.1315 -0.08814,-0.42346 -0.097,-0.86562 -0.02607,-1.325 l 1.342738,-8.6419 h 2.544655 l -1.34274,8.6419 c -0.04726,0.25947 -0.01823,0.47415 0.08814,0.64503 0.105863,0.17136 0.25358,0.25651 0.442163,0.25651 h 1.325504 l 1.484055,-9.54344 h 2.545153 l -1.908496,12.17625 h -3.871148 c -0.471211,0 -0.885802,-0.0965 -1.245737,-0.29149" />
      <path
         inkscape:connector-curvature="0"
         id="path278"
         style="fill:#ffffff;fill-opacity:1;fill-rule:nonzero;stroke:none;stroke-width:0.25821584"
         d="m -12.354667,948.45401 h -2.457009 l 0.335807,-2.19211 h 2.457009 z m -2.598328,12.52929 c -0.341715,-0.19991 -0.621391,-0.46828 -0.839026,-0.80357 -0.218128,-0.33632 -0.368797,-0.71889 -0.451519,-1.14876 -0.08174,-0.43082 -0.08764,-0.88087 -0.01673,-1.3521 l 1.343231,-8.60643 h 2.456519 l -1.343231,8.60643 c -0.03593,0.27133 -0.0059,0.48896 0.08814,0.65389 0.09356,0.16497 0.223546,0.24671 0.388987,0.24671 h 0.671121 l -0.423944,2.70418 h -0.67211 c -0.458903,0 -0.859703,-0.0994 -1.201423,-0.30035" />
      <path
         inkscape:connector-curvature="0"
         id="path280"
         style="fill:#ffffff;fill-opacity:1;fill-rule:nonzero;stroke:none;stroke-width:0.25821584"
         d="m -7.3584151,951.6875 c -0.2117264,0 -0.3948943,0.0832 -0.5475363,0.2477 -0.1536226,0.16492 -0.2860749,0.3683 -0.3978486,0.60957 -0.1117714,0.24174 -0.2033553,0.51011 -0.2737658,0.80405 -0.070413,0.29496 -0.1299883,0.56872 -0.1772598,0.82181 -0.047269,0.25356 -0.082229,0.47171 -0.1058608,0.65436 -0.024143,0.18219 -0.034469,0.28559 -0.034469,0.30875 h 1.5539739 c 0.2594893,0 0.4633372,-0.11128 0.6105594,-0.33581 0.1472245,-0.22354 0.2560463,-0.48305 0.3269501,-0.7775 0.07041,-0.29393 0.1176793,-0.58345 0.141807,-0.86609 0.02316,-0.28262 0.045794,-0.48844 0.069915,-0.61843 l 0.00885,-0.0882 0.00885,-0.0886 c 0,-0.19991 -0.053176,-0.36189 -0.1590402,-0.48597 -0.1063539,-0.12361 -0.2299463,-0.18565 -0.3712653,-0.18565 h -0.6538879 z m 1.6435926,9.56071 h -3.1099202 c -0.5426122,0 -0.9897,-0.0936 -1.3437273,-0.28216 -0.353534,-0.18857 -0.63567,-0.44756 -0.847888,-0.77797 -0.21222,-0.3299 -0.359441,-0.70656 -0.44167,-1.131 -0.08272,-0.42396 -0.124576,-0.87696 -0.124576,-1.36048 0,-0.49534 0.03053,-0.99856 0.08912,-1.51112 0.05859,-0.5126 0.129495,-1.00152 0.212217,-1.46684 0.08223,-0.4658 0.167414,-0.8863 0.256042,-1.26347 0.08863,-0.37716 0.161503,-0.68343 0.221081,-0.91926 0.117189,-0.47073 0.291002,-0.91931 0.520946,-1.34276 0.229453,-0.42444 0.5032188,-0.79569 0.8222857,-1.11328 0.3175901,-0.31858 0.6775248,-0.56871 1.0778365,-0.75089 0.4003126,-0.18317 0.8360721,-0.27426 1.3072854,-0.27426 h 0.6534022 c 0.4367456,0 0.8286863,0.0822 1.1758216,0.24718 0.3471321,0.16544 0.6425648,0.38652 0.8838342,0.66275 0.2412693,0.27721 0.4269004,0.60121 0.556891,0.97199 0.129989,0.37074 0.1939975,0.75729 0.1939975,1.15757 0,0.0945 -0.00279,0.18861 -0.00839,0.28315 -0.00589,0.094 -0.014772,0.18809 -0.026584,0.28263 l -0.2653972,1.62586 c -0.07041,0.45937 -0.2146806,0.89811 -0.4328082,1.31613 -0.2176349,0.41853 -0.49485,0.78684 -0.8306576,1.10492 -0.3358068,0.31808 -0.7129746,0.57463 -1.131504,0.76911 -0.4185317,0.194 -0.8626653,0.29149 -1.3343713,0.29149 h -1.4131601 v 0.17627 c 0,0.20043 0.049732,0.36291 0.1501809,0.48649 0.099953,0.12309 0.2210792,0.18513 0.3623955,0.18513 h 3.2340009 l -0.4067107,2.63282" />
      <path
         inkscape:connector-curvature="0"
         id="path282"
         style="fill:#ffffff;fill-opacity:1;fill-rule:nonzero;stroke:none;stroke-width:0.25821584"
         d="m 2.0476565,952.64226 c 0.035926,-0.23587 0,-0.44216 -0.1058636,-0.61796 -0.1063539,-0.17726 -0.2471794,-0.2659 -0.4244372,-0.2659 H 0.86346578 c -0.1762733,0 -0.3476255,0.0886 -0.5120809,0.2659 -0.1649502,0.1758 -0.2653994,0.38209 -0.2998657,0.61796 l -1.36194138,8.64139 h -2.5446577 l 1.3609577,-8.64139 c 0.071394,-0.45988 0.2181276,-0.90158 0.4411802,-1.32551 0.2245288,-0.42396 0.5042048,-0.79817 0.840505,-1.12216 0.33531423,-0.32399 0.71593188,-0.58594 1.13987578,-0.78683 0.4239461,-0.19991 0.8715251,-0.30036 1.34323082,-0.30036 h 0.6533968 c 0.4593969,0 0.8715251,0.10045 1.2363838,0.30036 0.3658455,0.20089 0.6637384,0.46284 0.8931921,0.78683 0.2304343,0.32399 0.3919376,0.6982 0.4859848,1.12216 0.094538,0.42393 0.1058636,0.86563 0.034981,1.32551 l -1.3604666,8.64139 H 0.68721038 l 1.36046632,-8.64139" />
      <path
         inkscape:connector-curvature="0"
         id="path284"
         style="fill:#ffffff;fill-opacity:1;fill-rule:nonzero;stroke:none;stroke-width:0.25821584"
         d="m 10.884524,952.64226 c 0.03498,-0.23587 0,-0.44216 -0.10685,-0.61796 -0.10586,-0.17726 -0.247174,-0.2659 -0.423944,-0.2659 H 9.6998427 c -0.177259,0 -0.347625,0.0886 -0.512083,0.2659 -0.165443,0.1758 -0.265396,0.38209 -0.301343,0.61796 l -1.359478,8.64139 H 4.9812975 l 1.3604674,-8.64139 c 0.070906,-0.45988 0.2186179,-0.90158 0.4426541,-1.32551 0.2230517,-0.42396 0.5027287,-0.79817 0.8395187,-1.12216 0.335317,-0.32399 0.715439,-0.58594 1.138892,-0.78683 0.42493,-0.19991 0.872512,-0.30036 1.3437243,-0.30036 h 0.654383 c 0.458903,0 0.870048,0.10045 1.236384,0.30036 0.365349,0.20089 0.663245,0.46284 0.891712,0.78683 0.230437,0.32399 0.392431,0.6982 0.486476,1.12216 0.09454,0.42393 0.105866,0.86563 0.03596,1.32551 l -1.360955,8.64139 H 9.5225997 l 1.3619413,-8.64139" />
      <path
         inkscape:connector-curvature="0"
         id="path286"
         style="fill:#ffffff;fill-opacity:1;fill-rule:nonzero;stroke:none;stroke-width:0.25821584"
         d="m 19.269874,951.95292 c -0.124081,-0.16497 -0.262443,-0.24769 -0.415573,-0.24769 h -0.654383 c -0.164951,0 -0.329899,0.0827 -0.494847,0.24769 -0.164461,0.16493 -0.270322,0.38307 -0.3171,0.65436 l -0.795204,5.10657 c -0.04727,0.27129 -0.01229,0.48596 0.105861,0.6455 0.117189,0.15855 0.258508,0.23832 0.423946,0.23832 h 0.653891 c 0.165441,-0.0355 0.323991,-0.13539 0.477122,-0.30037 0.15264,-0.16492 0.248164,-0.36483 0.282631,-0.6007 l 0.848381,-5.08932 c 0.04678,-0.27129 0.0094,-0.48943 -0.114725,-0.65436 z m 2.041439,9.27803 c -0.731198,0 -1.355052,-0.24127 -1.874025,-0.72479 -0.258505,0.16544 -0.468261,0.28905 -0.626811,0.37177 -0.159534,0.0822 -0.321038,0.15311 -0.485986,0.21122 -0.141807,0.0472 -0.318573,0.0832 -0.5303,0.10687 -0.212217,0.0232 -0.571661,0.0414 -1.077837,0.0522 -0.448562,0 -0.851338,-0.0935 -1.210286,-0.28216 -0.360425,-0.18856 -0.660782,-0.44165 -0.90156,-0.76024 -0.242747,-0.31808 -0.412622,-0.69179 -0.512081,-1.12166 -0.101435,-0.43082 -0.115712,-0.88677 -0.04481,-1.37029 l 0.794711,-5.10658 c 0.0714,-0.48352 0.224039,-0.93994 0.459893,-1.36981 0.235358,-0.42984 0.52439,-0.80455 0.866107,-1.12214 0.341715,-0.31858 0.721347,-0.57216 1.139876,-0.76025 0.417545,-0.18858 0.851338,-0.28263 1.298423,-0.28263 h 0.654874 c 0.447581,0 0.850354,0.0941 1.210288,0.28263 0.358951,0.18809 0.655861,0.44167 0.891715,0.76025 0.235852,0.31759 0.403756,0.6923 0.504203,1.12214 0.09996,0.42987 0.114725,0.88629 0.04382,1.36981 l -0.830163,5.30105 c -0.01229,0.18908 0.03498,0.35649 0.141313,0.50322 0.105373,0.14823 0.235855,0.20976 0.388987,0.18612 h 0.88285 l -0.406217,2.63329 H 21.31131" />
    </g>
  </g>
</svg>
