<?xml version="1.0" encoding="UTF-8" standalone="no"?>
<!-- Created with Inkscape (http://www.inkscape.org/) -->

<svg
   xmlns:dc="http://purl.org/dc/elements/1.1/"
   xmlns:cc="http://creativecommons.org/ns#"
   xmlns:rdf="http://www.w3.org/1999/02/22-rdf-syntax-ns#"
   xmlns:svg="http://www.w3.org/2000/svg"
   xmlns="http://www.w3.org/2000/svg"
   xmlns:sodipodi="http://sodipodi.sourceforge.net/DTD/sodipodi-0.dtd"
   xmlns:inkscape="http://www.inkscape.org/namespaces/inkscape"
   version="1.1"
   id="svg2"
   width="128"
   height="128"
   viewBox="0 0 128 128"
   sodipodi:docname="marker-primary.svg"
   inkscape:version="0.92.2 (5c3e80d, 2017-08-06)">
  <metadata
     id="metadata8">
    <rdf:RDF>
      <cc:Work
         rdf:about="">
        <dc:format>image/svg+xml</dc:format>
        <dc:type
           rdf:resource="http://purl.org/dc/dcmitype/StillImage" />
        <dc:title></dc:title>
      </cc:Work>
    </rdf:RDF>
  </metadata>
  <defs
     id="defs6" />
  <sodipodi:namedview
     pagecolor="#ffffff"
     bordercolor="#666666"
     borderopacity="1"
     objecttolerance="10"
     gridtolerance="10"
     guidetolerance="10"
     inkscape:pageopacity="0"
     inkscape:pageshadow="2"
     inkscape:window-width="2493"
     inkscape:window-height="1385"
     id="namedview4"
     showgrid="false"
     inkscape:snap-page="true"
     inkscape:snap-bbox="true"
     inkscape:zoom="6.0331941"
     inkscape:cx="84.26868"
     inkscape:cy="53.646323"
     inkscape:window-x="67"
     inkscape:window-y="27"
     inkscape:window-maximized="1"
     inkscape:current-layer="svg2"
     inkscape:pagecheckerboard="true" />
  <circle
     style="opacity:1;fill:#007381;fill-opacity:1;stroke:none;stroke-opacity:1"
     id="path827"
     cx="64"
     cy="64"
     r="64"
     inkscape:export-xdpi="96"
     inkscape:export-ydpi="96" />
  <path
     style="fill:#ffffff;stroke-width:0.79295075"
     d="m 94.529708,103.96202 c 0.704068,0 2.866498,-1.00953 4.805407,-2.24342 1.938905,-1.23388 4.027565,-2.854726 4.641455,-3.601889 l 1.11618,-1.358456 -0.72041,-0.72039 -0.72038,-0.72039 -3.17112,0.735075 c -1.744096,0.404296 -3.786627,0.743595 -4.538939,0.754002 l -1.367839,0.01897 0.418672,-2.180606 0.418672,-2.180607 -5.39444,-2.252517 -5.394433,-2.252501 -3.964757,-4.128487 c -2.18061,-2.270658 -6.239599,-6.096824 -9.019977,-8.502583 l -5.055229,-4.37412 1.288707,-4.433001 1.288714,-4.433012 0.0099,-3.842715 0.0099,-3.842715 2.754386,-1.784138 c 1.514918,-0.981277 3.076825,-1.78414 3.470911,-1.78414 0.394082,0 1.960222,-1.159691 3.480302,-2.57709 1.520088,-1.417396 3.700454,-3.85967 4.845258,-5.427261 l 2.081443,-2.850181 v -2.202862 -2.202858 l -1.189455,0.987135 -1.189427,0.987139 V 35.468929 33.38946 H 82.64026 81.847307 l -0.03378,3.766515 -0.03377,3.76652 -3.857534,2.973566 c -2.121651,1.63546 -4.425832,2.973565 -5.120409,2.973565 -0.694572,0 -1.251515,-0.267621 -1.237645,-0.594713 0.01385,-0.327092 0.499237,-1.219162 1.078607,-1.982382 0.57937,-0.763212 1.460092,-1.387661 1.957166,-1.387661 0.497073,0 0.903772,-0.338743 0.903772,-0.752758 0,-0.414022 -1.15969,-1.839678 -2.577094,-3.168138 l -2.577091,-2.415373 -2.316412,-0.0035 -2.31642,-0.0035 -1.4501,1.312322 c -0.797558,0.72178 -1.450101,1.792264 -1.450101,2.378853 0,0.586596 -0.35003,1.066529 -0.777843,1.066529 -0.427813,0 -1.007224,-0.913925 -1.287578,-2.030945 L 60.241239,37.257311 60.799241,30.8605 c 0.306901,-3.518244 0.919099,-7.189348 1.360447,-8.157999 l 0.802458,-1.761195 2.702448,-1.060362 c 1.486354,-0.583195 2.702459,-1.312407 2.702459,-1.620469 0,-0.308061 -0.538549,-0.766776 -1.196788,-1.019362 l -1.196777,-0.459249 0.205591,-1.013254 0.205592,-1.013249 H 64.798775 63.212871 L 62.703274,13.565934 62.19367,12.37651 61.760337,13.565934 c -0.23833,0.654185 -1.526984,4.447466 -2.863673,8.429513 l -2.430342,7.24009 -0.777957,11.394255 c -0.427877,6.266836 -0.783249,14.080369 -0.789719,17.363399 l -0.01173,5.969139 -1.585903,1.357887 -1.585896,1.357898 v 1.593658 c 0,0.876516 -0.269728,1.593658 -0.599383,1.593658 -0.329661,0 -1.03844,0.991897 -1.575068,2.204217 -0.536621,1.212319 -1.605005,3.03177 -2.374178,4.043234 -0.769177,1.011464 -2.112283,2.717337 -2.984685,3.790835 l -1.586183,1.951815 -5.341327,1.434023 -5.341325,1.434012 -0.900854,-1.085456 C 30.516553,83.041002 29.586212,82.552544 28.944601,82.552544 H 27.77803 l -0.414723,1.585908 -0.414723,1.585896 H 25.172717 23.39685 l -3.578615,2.732484 -3.57862,2.732472 -0.381817,1.460091 c -0.210005,0.803046 -0.08974,2.249644 0.267235,3.21466 0.356976,0.965003 1.004963,1.754562 1.439965,1.754562 0.434998,0 2.044624,-1.10078 3.576944,-2.446163 l 2.786035,-2.446175 4.179875,-1.112708 4.179874,-1.112692 7.533034,-0.03758 7.533029,-0.03757 1.686016,-0.963096 c 0.927313,-0.52969 2.650369,-2.118501 3.829025,-3.530682 1.178649,-1.412181 3.151498,-3.285725 4.384105,-4.163414 l 2.241105,-1.595804 6.617086,3.869414 c 3.639401,2.128172 7.388028,4.104829 8.330292,4.392561 0.942263,0.287732 2.258096,1.354769 2.924067,2.371175 0.665978,1.01641 3.463311,3.377476 6.216309,5.246824 2.752987,1.869349 6.054453,4.413693 7.336582,5.654103 l 2.33115,2.25527 h 1.280127 z"
     id="path825"
     inkscape:connector-curvature="0"
     sodipodi:nodetypes="cccccccccccccscccccccsccccccccccccccsccssscccsssscssccscccccccccscsccccsscssccccscccccccccsccccccccccscccsccc"
     inkscape:export-xdpi="96"
     inkscape:export-ydpi="96" />
</svg>
